<svg version="1.1" xmlns="http://www.w3.org/2000/svg" xmlns:xlink="http://www.w3.org/1999/xlink" width="214.37003" height="42.66667" viewBox="0,0,214.37003,42.66667"><g transform="translate(-190.86667,-160.63333)"><g data-paper-data="{&quot;isPaintingLayer&quot;:true}" stroke="none" stroke-width="0" stroke-miterlimit="10" stroke-dasharray="" stroke-dashoffset="0" style="mix-blend-mode: normal"><path d="M193.86667,203.3l-3,-24.66667l39.66666,-8.66666c0,0 -1.40605,5.77695 12.66666,3c17.76166,-3.50489 4.765,12.1568 4.765,12.1568l-11.19135,1.75929l-2.19432,-2.48705z" fill="#9d7554" fill-rule="nonzero" stroke-linecap="butt" stroke-linejoin="miter"/><path d="M263.2,175.96667c0,0 -15.41241,0.12361 -12.67818,-8.6432c0.41642,-1.33518 5.07362,-3.06498 11.09994,-4.23459c8.29098,-1.60914 18.57825,-2.45555 18.57825,-2.45555l125.03669,0.83135l-0.28969,6.46346l-62.52899,0.64101l0.10627,2.55642l56.2718,0.2632l-0.63759,2.38793l-91.29183,0.18998v3z" fill="#7b7b7b" fill-rule="nonzero" stroke-linecap="butt" stroke-linejoin="miter"/><path d="M248.7362,163.41318c2.43277,-0.18249 1.03349,1.46012 2.91881,2.55471c1.88533,1.09459 9.24459,2.12748 8.39318,4.01281c-0.85143,1.88533 -9.6701,7.78547 -13.50171,7.29915c-3.83165,-0.48631 -9.85301,-7.90599 -9.48806,-10.21709c0.36497,-2.3111 9.24504,-3.4671 11.67779,-3.64957z" fill="#c21912" fill-rule="evenodd" stroke-linecap="butt" stroke-linejoin="round"/><path d="M307.06755,175.8537v-11h49.66666v11z" fill="#9d7554" fill-rule="nonzero" stroke-linecap="butt" stroke-linejoin="miter"/><path d="M251.36558,170.75011c1.53628,-0.67169 4.92916,-2.02767 6.23191,-2.5442c1.30311,-0.51701 1.13813,-0.5824 1.58564,-0.55644c0.4475,0.02596 0.57709,0.70651 1.09915,0.71048c0.52204,0.00399 1.24424,-0.85283 2.03316,-0.68669c0.78892,0.16617 2.30174,0.74108 2.70075,1.68318c0.3995,0.94248 0.47158,2.24089 -0.30521,3.97059c-0.77681,1.72969 -3.07441,4.62836 -4.35481,6.40663c-1.27992,1.77865 -2.1278,3.3953 -3.32574,4.26366c-1.19756,0.86789 -2.58713,0.85355 -3.86122,0.9447c-1.27409,0.09114 -2.58253,-0.05772 -3.78435,-0.39857c-1.20183,-0.34084 -2.63325,-0.97046 -3.42786,-1.64584c-0.79423,-0.67587 -1.06629,-1.5031 -1.33823,-2.40755c-0.27192,-0.90445 -0.48468,-1.93991 -0.29357,-3.02089c0.19113,-1.08098 0.76567,-2.59331 1.44154,-3.46565c0.67587,-0.87232 1.68055,-1.22502 2.61352,-1.76701c0.93331,-0.54248 1.44904,-0.81469 2.98534,-1.4864z" fill="#f1c232" fill-rule="evenodd" stroke-linecap="square" stroke-linejoin="miter"/><path d="M320.75398,180.84758c-1.52371,0.7003 -4.89123,2.11944 -6.1843,2.66024c-1.29343,0.54128 -1.12725,0.6036 -1.57522,0.58597c-0.44799,-0.01761 -0.59024,-0.69574 -1.11234,-0.68999c-0.52212,0.00577 -1.22831,0.876 -2.02031,0.72455c-0.792,-0.15145 -2.31549,-0.69815 -2.73203,-1.63279c-0.41705,-0.935 -0.51332,-2.23203 0.23123,-3.97616c0.74455,-1.74411 2.98808,-4.68548 4.23531,-6.48757c1.24671,-1.80243 2.06446,-3.43482 3.24618,-4.32549c1.18135,-0.89017 2.57116,-0.90173 3.84352,-1.01662c1.27236,-0.11487 2.5835,0.00962 3.79165,0.32806c1.20815,0.31843 2.65123,0.92136 3.45844,1.58191c0.80681,0.66107 1.09425,1.48319 1.38304,2.38255c0.28875,0.89935 0.52079,1.9308 0.34983,3.01531c-0.17097,1.08452 -0.71729,2.60751 -1.37689,3.4924c-0.65964,0.88489 -1.65768,1.25629 -2.58053,1.81565c-0.9232,0.55986 -1.4338,0.84167 -2.95755,1.54198z" fill="#f1c232" fill-rule="evenodd" stroke-linecap="square" stroke-linejoin="miter"/><path d="M390.03334,171.63333v-3.98864h2v3.98864z" fill="#7b7b7b" fill-rule="nonzero" stroke-linecap="butt" stroke-linejoin="miter"/></g></g></svg>