<svg version="1.1" xmlns="http://www.w3.org/2000/svg" xmlns:xlink="http://www.w3.org/1999/xlink" width="202.41277" height="99.63581" viewBox="0,0,202.41277,99.63581"><g transform="translate(-190.75476,-130.18209)"><g data-paper-data="{&quot;isPaintingLayer&quot;:true}" stroke="none" stroke-width="0" stroke-miterlimit="10" stroke-dasharray="" stroke-dashoffset="0" style="mix-blend-mode: normal"><path d="M200.5761,229.81791l-9.82134,-22.82511l35.62378,-19.48079c0,0 0.27676,5.93915 12.99897,-0.68641c16.05714,-8.36236 7.99399,10.3242 7.99399,10.3242l-10.24376,4.83806l-2.80561,-1.7689z" fill="#9d7554" fill-rule="nonzero" stroke-linecap="butt" stroke-linejoin="miter"/><path d="M259.41335,184.07516c0,0 -14.75456,4.45656 -14.59835,-4.72542c0.02379,-1.39841 4.00585,-4.36908 9.45935,-7.18757c7.5029,-3.87764 17.13607,-7.58527 17.13607,-7.58527l120.21589,-34.39481l1.54121,6.2837l-59.82075,18.21437l0.8215,2.42316l54.07101,-15.58558l0.06029,2.47085l-87.54776,25.8771l0.84437,2.87872z" fill="#7b7b7b" fill-rule="nonzero" stroke-linecap="butt" stroke-linejoin="miter"/><path d="M242.001,176.10011c2.28306,-0.85984 1.40267,1.1102 3.51986,1.62991c2.11719,0.5197 9.46966,-0.56049 9.18332,1.48826c-0.28637,2.04875 -7.0879,10.19246 -10.90148,10.80423c-3.81362,0.61179 -11.67989,-4.81317 -11.98017,-7.13356c-0.30026,-2.32039 7.89545,-5.92903 10.1785,-6.78884z" fill="#c21912" fill-rule="evenodd" stroke-linecap="butt" stroke-linejoin="round"/><path d="M309.81868,169.98525l-3.09604,-10.55531l47.65881,-13.97907l3.09604,10.55531z" fill="#9d7554" fill-rule="nonzero" stroke-linecap="butt" stroke-linejoin="miter"/><path d="M246.58912,182.40038c1.28512,-1.07693 4.15919,-3.33305 5.26389,-4.19536c1.10491,-0.86288 0.9282,-0.87919 1.36492,-0.98023c0.43672,-0.10104 0.75261,0.51553 1.25468,0.3724c0.50206,-0.1431 0.9539,-1.16855 1.75769,-1.23118c0.80379,-0.0626 2.41727,0.06327 3.06532,0.85499c0.64862,0.79194 1.08324,2.01757 0.82469,3.89598c-0.25857,1.8784 -1.64744,5.30657 -2.37556,7.37333c-0.72756,2.06699 -1.08615,3.85693 -1.99125,5.02736c-0.90487,1.16987 -2.2423,1.54722 -3.43923,1.99329c-1.19693,0.44606 -2.49437,0.67149 -3.74354,0.68268c-1.24918,0.0112 -2.79994,-0.19008 -3.75251,-0.6145c-0.95235,-0.425 -1.44624,-1.14222 -1.96176,-1.93357c-0.51549,-0.79136 -1.01109,-1.72507 -1.13196,-2.81614c-0.12085,-1.09107 0.00481,-2.70398 0.40783,-3.73128c0.40302,-1.02729 1.26782,-1.6485 2.01052,-2.43117c0.7429,-0.78323 1.16115,-1.1896 2.4463,-2.26655z" fill="#f1c232" fill-rule="evenodd" stroke-linecap="square" stroke-linejoin="miter"/><path d="M329.38257,180.35917c-1.52371,0.7003 -4.89123,2.11944 -6.1843,2.66024c-1.29343,0.54128 -1.12725,0.6036 -1.57522,0.58597c-0.44799,-0.01761 -0.59024,-0.69574 -1.11234,-0.68999c-0.52212,0.00577 -1.22831,0.876 -2.02031,0.72455c-0.792,-0.15145 -2.31549,-0.69815 -2.73203,-1.63279c-0.41705,-0.935 -0.51332,-2.23203 0.23123,-3.97616c0.74455,-1.74411 2.98808,-4.68548 4.23531,-6.48757c1.24671,-1.80243 2.06446,-3.43482 3.24618,-4.32549c1.18135,-0.89017 2.57116,-0.90173 3.84352,-1.01662c1.27236,-0.11487 2.5835,0.00962 3.79165,0.32806c1.20815,0.31843 2.65123,0.92136 3.45844,1.58191c0.80681,0.66107 1.09425,1.48319 1.38304,2.38255c0.28875,0.89935 0.52079,1.9308 0.34983,3.01531c-0.17097,1.08452 -0.71729,2.60751 -1.37689,3.4924c-0.65964,0.88489 -1.65768,1.25629 -2.58053,1.81565c-0.9232,0.55986 -1.4338,0.84167 -2.95755,1.54198z" fill="#f1c232" fill-rule="evenodd" stroke-linecap="square" stroke-linejoin="miter"/><path d="M379.89962,144.21877l-1.12263,-3.8274l1.91915,-0.56292l1.12263,3.8274z" fill="#7b7b7b" fill-rule="nonzero" stroke-linecap="butt" stroke-linejoin="miter"/></g></g></svg>