<svg version="1.1" xmlns="http://www.w3.org/2000/svg" xmlns:xlink="http://www.w3.org/1999/xlink" width="110.76595" height="204.58525" viewBox="0,0,110.76595,204.58525"><g transform="translate(-225.58988,-38.43046)"><g data-paper-data="{&quot;isPaintingLayer&quot;:true}" stroke="none" stroke-width="0" stroke-miterlimit="10" stroke-dasharray="" stroke-dashoffset="0" style="mix-blend-mode: normal"><path d="M248.53838,243.0157l-22.9485,-9.52947l11.97972,-38.79486c0,0 4.33668,4.06735 8.84597,-9.54951c5.69133,-17.18632 12.92761,1.83572 12.92761,1.83572l-3.97694,10.6078l-3.24498,0.68599z" fill="#9d7554" fill-rule="nonzero" stroke-linecap="butt" stroke-linejoin="miter"/><path d="M258.871,169.2088c0,0 -7.47838,13.47708 -13.76395,6.78196c-0.95729,-1.01966 -0.17078,-5.92508 1.77724,-11.74657c2.68009,-8.00917 7.00669,-17.38066 7.00669,-17.38066l62.26663,-108.43307l5.48374,3.43348l-30.21873,54.7459l2.27763,1.16576l27.92604,-48.85408l1.76483,1.73035l-44.76839,79.56146l2.61145,1.4766z" fill="#7b7b7b" fill-rule="nonzero" stroke-linecap="butt" stroke-linejoin="miter"/><path d="M240.82434,175.62047c1.03855,-2.20751 1.77969,-0.18097 3.66047,-1.28335c1.88078,-1.10239 6.40211,-7.00011 7.6242,-5.33102c1.22207,1.66911 2.0175,12.24966 -0.29175,15.34564c-2.30926,3.09602 -11.73167,4.68555 -13.56381,3.23035c-1.83213,-1.45522 1.53235,-9.75415 2.57091,-11.96163z" fill="#c21912" fill-rule="evenodd" stroke-linecap="butt" stroke-linejoin="round"/><path d="M285.20975,123.98167l-9.57531,-5.41419l24.44589,-43.23396l9.57531,5.41419z" fill="#9d7554" fill-rule="nonzero" stroke-linecap="butt" stroke-linejoin="miter"/><path d="M248.50519,176.94287c0.17146,-1.66791 0.66108,-5.28877 0.85266,-6.67702c0.19134,-1.38881 0.05322,-1.27738 0.29608,-1.65415c0.24286,-0.37676 0.89905,-0.1546 1.15946,-0.60709c0.26042,-0.45246 -0.12996,-1.50285 0.40297,-2.10782c0.53295,-0.60495 1.77801,-1.63887 2.79449,-1.5225c1.01705,0.11613 2.18277,0.69246 3.30611,2.22c1.12332,1.52755 2.51568,4.9543 3.43343,6.94412c0.91831,1.9896 1.90825,3.52338 2.07452,4.99357c0.16605,1.46963 -0.53038,2.67217 -1.07814,3.82611c-0.54777,1.15393 -1.32136,2.21964 -2.2096,3.09804c-0.88824,0.87841 -2.14085,1.81454 -3.11986,2.17381c-0.97925,0.3587 -1.83325,0.18836 -2.75441,-0.02009c-0.92115,-0.20847 -1.92722,-0.53292 -2.77413,-1.23133c-0.8469,-0.69843 -1.88057,-1.94293 -2.30726,-2.96063c-0.42668,-1.01769 -0.23919,-2.06584 -0.25178,-3.14474c-0.01284,-1.07944 0.00404,-1.66235 0.1755,-3.33029z" fill="#f1c232" fill-rule="evenodd" stroke-linecap="square" stroke-linejoin="miter"/><path d="M329.38257,180.35917c-1.52371,0.7003 -4.89123,2.11944 -6.1843,2.66024c-1.29343,0.54128 -1.12725,0.6036 -1.57522,0.58597c-0.44799,-0.01761 -0.59024,-0.69574 -1.11234,-0.68999c-0.52212,0.00577 -1.22831,0.876 -2.02031,0.72455c-0.792,-0.15145 -2.31549,-0.69815 -2.73203,-1.63279c-0.41705,-0.935 -0.51332,-2.23203 0.23123,-3.97616c0.74455,-1.74411 2.98808,-4.68548 4.23531,-6.48757c1.24671,-1.80243 2.06446,-3.43482 3.24618,-4.32549c1.18135,-0.89017 2.57116,-0.90173 3.84352,-1.01662c1.27236,-0.11487 2.5835,0.00962 3.79165,0.32806c1.20815,0.31843 2.65123,0.92136 3.45844,1.58191c0.80681,0.66107 1.09425,1.48319 1.38304,2.38255c0.28875,0.89935 0.52079,1.9308 0.34983,3.01531c-0.17097,1.08452 -0.71729,2.60751 -1.37689,3.4924c-0.65964,0.88489 -1.65768,1.25629 -2.58053,1.81565c-0.9232,0.55986 -1.4338,0.84167 -2.95755,1.54198z" fill="#f1c232" fill-rule="evenodd" stroke-linecap="square" stroke-linejoin="miter"/><path d="M317.52617,56.66972l-3.47204,-1.96321l0.9844,-1.74097l3.47204,1.96321z" fill="#7b7b7b" fill-rule="nonzero" stroke-linecap="butt" stroke-linejoin="miter"/></g></g></svg>