<svg version="1.1" xmlns="http://www.w3.org/2000/svg" xmlns:xlink="http://www.w3.org/1999/xlink" width="187.0684" height="162.58517" viewBox="0,0,187.0684,162.58517"><g transform="translate(-149.28742,-52.25624)"><g data-paper-data="{&quot;isPaintingLayer&quot;:true}" stroke="none" stroke-width="0" stroke-miterlimit="10" stroke-dasharray="" stroke-dashoffset="0" style="mix-blend-mode: normal"><path d="M311.90428,197.3513l-17.65049,17.49011l-31.16187,-26.02869c0,0 5.42629,-2.43013 -5.39388,-11.84695c-13.65652,-11.8853 6.68444,-11.21656 6.68444,-11.21656l8.24994,7.76402l-0.62001,3.25823z" fill="#9d7554" fill-rule="nonzero" stroke-linecap="butt" stroke-linejoin="miter"/><path d="M247.80907,159.32468c0,0 9.54493,12.10174 0.94218,15.31514c-1.31019,0.4894 -5.53162,-2.12999 -10.14967,-6.17452c-6.35346,-5.56445 -13.32797,-13.17371 -13.32797,-13.17371l-75.98619,-99.30237l5.28442,-3.73298l38.83452,49.0119l1.95472,-1.65097l-34.28466,-44.62227l2.27756,-0.95995l56.10877,72.01418l2.37033,-1.8389z" fill="#7b7b7b" fill-rule="nonzero" stroke-linecap="butt" stroke-linejoin="miter"/><path d="M240.13843,174.6482c-0.19194,-2.43205 1.45609,-1.03915 2.54336,-2.92871c1.08726,-1.88957 2.09157,-9.25278 3.98019,-8.4087c1.88862,0.8441 7.82296,9.6398 7.35151,13.47327c-0.47143,3.83351 -7.86768,9.88363 -10.18017,9.52766c-2.31249,-0.356 -3.50297,-9.23151 -3.69488,-11.66353z" fill="#c21912" fill-rule="evenodd" stroke-linecap="butt" stroke-linejoin="round"/><path d="M216.25732,117.56691l-8.69122,6.74261l-30.44389,-39.24215l8.69122,-6.74261z" fill="#9d7554" fill-rule="nonzero" stroke-linecap="butt" stroke-linejoin="miter"/><path d="M247.4651,171.99036c-0.67765,-1.53366 -2.04679,-4.92126 -2.56837,-6.22198c-0.52207,-1.3011 -0.58681,-1.13586 -0.56259,-1.58347c0.02423,-0.4476 0.70427,-0.57983 0.70621,-1.1019c0.00196,-0.52205 -0.85765,-1.24092 -0.69458,-2.03048c0.1631,-0.78956 0.73213,-2.3046 1.67268,-2.70727c0.94093,-0.40316 2.23904,-0.48028 3.97175,0.28979c1.73269,0.77009 4.64026,3.05642 6.42349,4.3299c1.78361,1.27301 3.40354,2.1146 4.27654,3.30916c0.87254,1.19418 0.86359,2.5838 0.95969,3.85752c0.09609,1.27372 -0.04769,2.58273 -0.38387,3.78587c-0.33618,1.20315 -0.96023,2.637 -1.63252,3.43422c-0.67278,0.79685 -1.49895,1.07212 -2.40234,1.34757c-0.90339,0.27543 -1.93802,0.49221 -3.01973,0.3053c-1.08171,-0.18693 -2.59627,-0.7556 -3.47122,-1.42808c-0.87494,-0.67248 -1.23153,-1.67578 -1.77714,-2.60664c-0.5461,-0.9312 -0.82031,-1.44586 -1.49798,-2.97955z" fill="#f1c232" fill-rule="evenodd" stroke-linecap="square" stroke-linejoin="miter"/><path d="M329.38257,180.35917c-1.52371,0.7003 -4.89123,2.11944 -6.1843,2.66024c-1.29343,0.54128 -1.12725,0.6036 -1.57522,0.58597c-0.44799,-0.01761 -0.59024,-0.69574 -1.11234,-0.68999c-0.52212,0.00577 -1.22831,0.876 -2.02031,0.72455c-0.792,-0.15145 -2.31549,-0.69815 -2.73203,-1.63279c-0.41705,-0.935 -0.51332,-2.23203 0.23123,-3.97616c0.74455,-1.74411 2.98808,-4.68548 4.23531,-6.48757c1.24671,-1.80243 2.06446,-3.43482 3.24618,-4.32549c1.18135,-0.89017 2.57116,-0.90173 3.84352,-1.01662c1.27236,-0.11487 2.5835,0.00962 3.79165,0.32806c1.20815,0.31843 2.65123,0.92136 3.45844,1.58191c0.80681,0.66107 1.09425,1.48319 1.38304,2.38255c0.28875,0.89935 0.52079,1.9308 0.34983,3.01531c-0.17097,1.08452 -0.71729,2.60751 -1.37689,3.4924c-0.65964,0.88489 -1.65768,1.25629 -2.58053,1.81565c-0.9232,0.55986 -1.4338,0.84167 -2.95755,1.54198z" fill="#f1c232" fill-rule="evenodd" stroke-linecap="square" stroke-linejoin="miter"/></g></g></svg>