<svg version="1.1" xmlns="http://www.w3.org/2000/svg" xmlns:xlink="http://www.w3.org/1999/xlink" width="274.80635" height="330.7694" viewBox="0,0,274.80635,330.7694"><g transform="translate(-98.30416,-15.02876)"><g data-paper-data="{&quot;isPaintingLayer&quot;:true}" fill-rule="evenodd" stroke-miterlimit="10" stroke-dasharray="" stroke-dashoffset="0" style="mix-blend-mode: normal"><path d="M167.90472,290.19354l142.58344,1.34442l23.31628,27.35126l-12.55585,21.52264l-156.93121,0.44757l-9.41437,-19.72894z" fill="#783f04" stroke="none" stroke-width="1" stroke-linecap="square" stroke-linejoin="miter"/><path d="M167.90472,290.19354l142.58344,1.34442l23.31628,27.35126l-12.55585,21.52264l-156.93121,0.44757l-9.41437,-19.72894z" fill="none" stroke="#783f04" stroke-width="1" stroke-linecap="butt" stroke-linejoin="round"/><path d="M322.96552,202.18065c14.22369,8.18854 19.88324,21.8346 27.86578,32.7525c7.98254,10.91791 16.9812,21.26184 20.02948,32.755c3.04828,11.49316 1.88849,27.44061 -1.73969,36.20398c-3.62817,8.76337 -10.30512,13.93426 -20.02948,16.37622c-9.72437,2.44196 -23.0769,-2.0119 -38.31671,-1.72449c-15.23975,0.28741 -26.70636,2.58716 -53.12201,3.44897c-26.41559,0.86182 -81.56848,6.03186 -105.37158,1.72192c-23.80304,-4.30994 -31.49609,-16.23273 -37.44684,-27.58154c-5.95074,-11.34882 -2.75708,-22.26672 1.74225,-40.51135c4.49933,-18.24469 17.5611,-57.46375 25.25366,-68.95648c7.69263,-11.49274 0.29211,0.14392 20.90192,0c20.6098,-0.14392 76.05133,-3.4494 102.7569,-0.86353c26.70557,2.58588 43.25269,8.19025 57.47632,16.37878z" fill="#cc0000" stroke="none" stroke-width="1" stroke-linecap="square" stroke-linejoin="miter"/><path d="M322.96552,202.18065c14.22369,8.18854 19.88324,21.8346 27.86578,32.7525c7.98254,10.91791 16.9812,21.26184 20.02948,32.755c3.04828,11.49316 1.88849,27.44061 -1.73969,36.20398c-3.62817,8.76337 -10.30512,13.93426 -20.02948,16.37622c-9.72437,2.44196 -23.0769,-2.0119 -38.31671,-1.72449c-15.23975,0.28741 -26.70636,2.58716 -53.12201,3.44897c-26.41559,0.86182 -81.56848,6.03186 -105.37158,1.72192c-23.80304,-4.30994 -31.49609,-16.23273 -37.44684,-27.58154c-5.95074,-11.34882 -2.75708,-22.26672 1.74225,-40.51135c4.49933,-18.24469 17.5611,-57.46375 25.25366,-68.95648c7.69263,-11.49274 0.29211,0.14392 20.90192,0c20.6098,-0.14392 76.05133,-3.4494 102.7569,-0.86353c26.70557,2.58588 43.25269,8.19025 57.47632,16.37878z" fill="none" stroke="#cc0000" stroke-width="1" stroke-linecap="butt" stroke-linejoin="round"/><path d="M108.175,162.21849c-0.98247,-3.90992 -1.34971,-7.12337 -2.07192,-10.82162c-0.72152,-3.69647 -2.05458,-5.66365 -2.2609,-11.36191c-0.20463,-5.69877 -0.33292,-15.47307 1.02877,-22.82743c1.36332,-7.35486 3.47665,-13.35159 7.14497,-21.30378c3.66995,-7.95274 9.76564,-19.37611 14.87102,-26.40733c5.10542,-7.03127 11.52351,-11.88701 15.76003,-15.78372c4.23658,-3.89673 2.59373,-3.53082 9.6571,-7.59787c7.06338,-4.06701 23.7045,-13.27334 32.72379,-16.80246c9.01936,-3.5291 14.56056,-3.12038 21.38839,-4.37287c6.82781,-1.25251 13.3659,-2.80711 19.58149,-3.13914c6.21563,-0.33204 11.44604,-0.01886 17.71681,1.1494c6.27077,1.16827 13.21858,3.21687 19.90549,5.85896c6.68755,2.64393 13.27149,5.52296 20.22129,9.99787c6.94987,4.47492 15.8181,11.52732 21.47994,16.85297c5.66252,5.32742 8.90142,9.56854 12.49486,15.10556c3.59343,5.5371 6.88813,12.0873 9.06852,18.11391c2.18039,6.02662 3.36419,12.39843 4.01642,18.04284c0.65227,5.64434 0.12958,10.58483 -0.10336,15.8275c-0.23121,5.24207 -0.5354,10.81326 -1.28848,15.62829c-0.75313,4.8151 -0.83246,7.27365 -3.22548,13.26457c-2.393,5.99099 -6.35197,15.25738 -11.13525,22.68414c-4.78159,7.42623 -9.67926,14.78998 -17.55991,21.87304c-7.88069,7.08314 -20.42848,15.47913 -29.72483,20.62364c-9.29642,5.14446 -16.46646,7.82969 -26.05822,10.24092c-9.59168,2.41127 -23.06299,3.84016 -31.49256,4.23082c-8.42953,0.39059 -13.25614,-1.17734 -19.08932,-1.88945c-5.83324,-0.71208 -10.06366,-0.56468 -15.90893,-2.38548c-5.84528,-1.8208 -12.57466,-4.85269 -19.16052,-8.54407c-6.58519,-3.68961 -14.59744,-8.81077 -20.35264,-13.59895c-5.7552,-4.78812 -10.21048,-10.12528 -14.17791,-15.12826c-3.96746,-5.00303 -7.38591,-10.29684 -9.62716,-14.88557c-2.24125,-4.58873 -2.8384,-8.73279 -3.82151,-12.64455z" fill="#f9cb9c" stroke="none" stroke-width="1" stroke-linecap="square" stroke-linejoin="miter"/><path d="M108.175,162.21849c-0.98247,-3.90992 -1.34971,-7.12337 -2.07192,-10.82162c-0.72152,-3.69647 -2.05458,-5.66365 -2.2609,-11.36191c-0.20463,-5.69877 -0.33292,-15.47307 1.02877,-22.82743c1.36332,-7.35486 3.47665,-13.35159 7.14497,-21.30378c3.66995,-7.95274 9.76564,-19.37611 14.87102,-26.40733c5.10542,-7.03127 11.52351,-11.88701 15.76003,-15.78372c4.23658,-3.89673 2.59373,-3.53082 9.6571,-7.59787c7.06338,-4.06701 23.7045,-13.27334 32.72379,-16.80246c9.01936,-3.5291 14.56056,-3.12038 21.38839,-4.37287c6.82781,-1.25251 13.3659,-2.80711 19.58149,-3.13914c6.21563,-0.33204 11.44604,-0.01886 17.71681,1.1494c6.27077,1.16827 13.21858,3.21687 19.90549,5.85896c6.68755,2.64393 13.27149,5.52296 20.22129,9.99787c6.94987,4.47492 15.8181,11.52732 21.47994,16.85297c5.66252,5.32742 8.90142,9.56854 12.49486,15.10556c3.59343,5.5371 6.88813,12.0873 9.06852,18.11391c2.18039,6.02662 3.36419,12.39843 4.01642,18.04284c0.65227,5.64434 0.12958,10.58483 -0.10336,15.8275c-0.23121,5.24207 -0.5354,10.81326 -1.28848,15.62829c-0.75313,4.8151 -0.83246,7.27365 -3.22548,13.26457c-2.393,5.99099 -6.35197,15.25738 -11.13525,22.68414c-4.78159,7.42623 -9.67926,14.78998 -17.55991,21.87304c-7.88069,7.08314 -20.42848,15.47913 -29.72483,20.62364c-9.29642,5.14446 -16.46646,7.82969 -26.05822,10.24092c-9.59168,2.41127 -23.06299,3.84016 -31.49256,4.23082c-8.42953,0.39059 -13.25614,-1.17734 -19.08932,-1.88945c-5.83324,-0.71208 -10.06366,-0.56468 -15.90893,-2.38548c-5.84528,-1.8208 -12.57466,-4.85269 -19.16052,-8.54407c-6.58519,-3.68961 -14.59744,-8.81077 -20.35264,-13.59895c-5.7552,-4.78812 -10.21048,-10.12528 -14.17791,-15.12826c-3.96746,-5.00303 -7.38591,-10.29684 -9.62716,-14.88557c-2.24125,-4.58873 -2.8384,-8.73279 -3.82151,-12.64455z" fill="none" stroke="#f9cb9c" stroke-width="4" stroke-linecap="butt" stroke-linejoin="round"/><path d="M322.145,76.55421c2.71538,4.62568 3.32675,10.18362 3.63383,15.74633c0.30709,5.56271 0.17319,12.1878 -1.78898,17.62498c-1.96217,5.43718 -4.8023,10.9773 -9.9876,14.99945c-5.18468,4.02393 -14.56544,8.79113 -21.1259,9.14003c-6.56049,0.34885 -13.31213,-2.77597 -18.23219,-7.04444c-4.91938,-4.26671 -10.07926,-10.98179 -11.28803,-18.56047c-1.20811,-7.57697 1.18801,-19.94648 4.03914,-26.90715c2.85354,-6.9595 8.1222,-11.61829 13.07499,-14.8535c4.95341,-3.23341 11.80741,-4.19312 16.64184,-4.55183c4.83623,-0.35927 8.19725,-0.00426 12.3695,2.39613c4.17225,2.40039 9.94807,7.38471 12.66341,12.01048z" fill="#ffffff" stroke="none" stroke-width="1" stroke-linecap="square" stroke-linejoin="miter"/><path d="M322.145,76.55421c2.71538,4.62568 3.32675,10.18362 3.63383,15.74633c0.30709,5.56271 0.17319,12.1878 -1.78898,17.62498c-1.96217,5.43718 -4.8023,10.9773 -9.9876,14.99945c-5.18468,4.02393 -14.56544,8.79113 -21.1259,9.14003c-6.56049,0.34885 -13.31213,-2.77597 -18.23219,-7.04444c-4.91938,-4.26671 -10.07926,-10.98179 -11.28803,-18.56047c-1.20811,-7.57697 1.18801,-19.94648 4.03914,-26.90715c2.85354,-6.9595 8.1222,-11.61829 13.07499,-14.8535c4.95341,-3.23341 11.80741,-4.19312 16.64184,-4.55183c4.83623,-0.35927 8.19725,-0.00426 12.3695,2.39613c4.17225,2.40039 9.94807,7.38471 12.66341,12.01048z" fill="none" stroke="#ffffff" stroke-width="1" stroke-linecap="butt" stroke-linejoin="round"/><path d="M310.84288,91.41805v0c-0.47262,-1.36425 0.25018,-2.85329 1.61441,-3.32592v0c0.6551,-0.22695 1.37362,-0.18435 1.99731,0.1184c0.62369,0.30274 1.10166,0.84091 1.32861,1.49602v0c0.47262,1.36425 -0.25018,2.85329 -1.61441,3.32592v0c-1.36425,0.47262 -2.85329,-0.25018 -3.32592,-1.61441z" fill="#000000" stroke="none" stroke-width="1" stroke-linecap="square" stroke-linejoin="miter"/><path d="M310.84288,91.41805v0c-0.47262,-1.36425 0.25018,-2.85329 1.61441,-3.32592v0c0.6551,-0.22695 1.37362,-0.18435 1.99731,0.1184c0.62369,0.30274 1.10166,0.84091 1.32861,1.49602v0c0.47262,1.36425 -0.25018,2.85329 -1.61441,3.32592v0c-1.36425,0.47262 -2.85329,-0.25018 -3.32592,-1.61441z" fill="none" stroke="#000000" stroke-width="1" stroke-linecap="butt" stroke-linejoin="round"/><path d="M107.57883,172.04787c-1.46056,-2.19837 -4.33866,-9.07569 -5.8014,-15.47722c-1.46279,-6.40151 -2.86688,-15.61794 -2.97327,-22.92846c-0.10488,-7.31137 0.99892,-14.79503 2.3394,-20.93729c1.3405,-6.14221 3.60293,-10.60811 5.70544,-15.91282c2.10249,-5.30473 3.71088,-10.50256 6.90619,-15.91797c3.19532,-5.41543 9.09604,-12.48427 12.26718,-16.57537c3.17114,-4.0911 3.21043,-4.38622 6.75785,-7.97456c3.54748,-3.58836 8.80744,-9.26717 14.52798,-13.56059c5.72059,-4.29343 12.55086,-8.76114 19.79437,-12.2016c7.24441,-3.43877 17.27632,-6.28405 23.67106,-8.43704c6.39472,-2.15302 8.96039,-3.51252 14.69844,-4.48589c5.73961,-0.97427 13.27227,-1.51548 19.73364,-1.35877c6.46137,0.1567 11.45921,0.57384 19.0356,2.30068c7.5764,1.72685 18.66193,4.63341 26.41977,8.06202c7.75778,3.42863 15.19996,8.83461 20.13026,12.50785c4.93278,3.67406 9.98607,7.66164 9.45895,9.53397c-0.52714,1.8724 -6.39404,0.51384 -12.61776,1.7002c-6.22377,1.18638 -15.6845,3.33537 -24.72872,5.41798c-9.04415,2.08264 -21.06869,4.22263 -29.53699,7.08017c-8.46829,2.85755 -13.84713,6.30966 -21.26874,10.06515c-7.42156,3.75548 -16.01352,7.93787 -23.25975,12.46943c-7.24533,4.53324 -12.67091,7.90038 -20.21336,14.72423c-7.54086,6.82304 -16.91255,16.89336 -25.03474,26.21979c-8.12218,9.32643 -18.18995,22.50813 -23.69889,29.7413c-5.50895,7.23316 -7.30125,11.00414 -9.35298,13.66102c-2.05177,2.65696 -1.49904,4.48217 -2.95953,2.28383z" fill="#57adfa" stroke="none" stroke-width="1" stroke-linecap="square" stroke-linejoin="miter"/><path d="M107.57883,172.04787c-1.46056,-2.19837 -4.33866,-9.07569 -5.8014,-15.47722c-1.46279,-6.40151 -2.86688,-15.61794 -2.97327,-22.92846c-0.10488,-7.31137 0.99892,-14.79503 2.3394,-20.93729c1.3405,-6.14221 3.60293,-10.60811 5.70544,-15.91282c2.10249,-5.30473 3.71088,-10.50256 6.90619,-15.91797c3.19532,-5.41543 9.09604,-12.48427 12.26718,-16.57537c3.17114,-4.0911 3.21043,-4.38622 6.75785,-7.97456c3.54748,-3.58836 8.80744,-9.26717 14.52798,-13.56059c5.72059,-4.29343 12.55086,-8.76114 19.79437,-12.2016c7.24441,-3.43877 17.27632,-6.28405 23.67106,-8.43704c6.39472,-2.15302 8.96039,-3.51252 14.69844,-4.48589c5.73961,-0.97427 13.27227,-1.51548 19.73364,-1.35877c6.46137,0.1567 11.45921,0.57384 19.0356,2.30068c7.5764,1.72685 18.66193,4.63341 26.41977,8.06202c7.75778,3.42863 15.19996,8.83461 20.13026,12.50785c4.93278,3.67406 9.98607,7.66164 9.45895,9.53397c-0.52714,1.8724 -6.39404,0.51384 -12.61776,1.7002c-6.22377,1.18638 -15.6845,3.33537 -24.72872,5.41798c-9.04415,2.08264 -21.06869,4.22263 -29.53699,7.08017c-8.46829,2.85755 -13.84713,6.30966 -21.26874,10.06515c-7.42156,3.75548 -16.01352,7.93787 -23.25975,12.46943c-7.24533,4.53324 -12.67091,7.90038 -20.21336,14.72423c-7.54086,6.82304 -16.91255,16.89336 -25.03474,26.21979c-8.12218,9.32643 -18.18995,22.50813 -23.69889,29.7413c-5.50895,7.23316 -7.30125,11.00414 -9.35298,13.66102c-2.05177,2.65696 -1.49904,4.48217 -2.95953,2.28383z" fill="none" stroke="#57adfa" stroke-width="1" stroke-linecap="butt" stroke-linejoin="round"/><path d="M289.70644,185.57757c0.13657,-0.04731 3.70167,-2.90241 7.02756,-4.25789c3.3259,-1.35548 8.91697,-3.18977 12.93093,-3.87195c4.01575,-0.6828 10.50846,-0.19917 11.15889,-0.2213c0.65039,-0.02204 -4.64512,-0.11142 -7.25935,0.08589c-2.61425,0.19727 -5.48488,0.3807 -8.425,1.09541c-2.94014,0.71465 -6.64697,1.99882 -9.21945,3.19393c-2.57244,1.19503 -6.3483,4.02256 -6.21358,3.97589z" fill="none" stroke="#000000" stroke-width="2" stroke-linecap="butt" stroke-linejoin="round"/><path d="M112.38243,180.96633c-0.89318,-0.43792 -4.85008,-1.15629 -3.17838,-5.78482c1.67321,-4.62938 8.57058,-15.18375 13.21227,-21.99069c4.64258,-6.80532 9.29029,-12.41356 14.63907,-18.8453c5.34975,-6.43001 12.081,-14.00311 17.45942,-19.74163c5.37841,-5.73852 10.27774,-10.61281 14.81446,-14.68692c4.53675,-4.07406 7.0667,-5.9565 12.40413,-9.76103c5.33745,-3.80447 13.08832,-9.42744 19.61869,-13.06931c6.53035,-3.64194 12.9991,-5.93945 19.56658,-8.78379c6.56748,-2.84433 12.12565,-5.78939 19.84064,-8.28131c7.71501,-2.49188 19.24941,-5.06427 26.44604,-6.67255c7.1967,-1.6083 10.98025,-2.21157 16.73433,-2.9731c5.75505,-0.75988 13.76734,-1.88981 17.79455,-1.59197c4.02874,0.29706 6.25231,2.24097 6.3724,3.37486c0.12161,1.13302 -1.05935,2.27433 -5.64548,3.42917c-4.58458,1.15392 -14.0047,1.9117 -21.86471,3.50042c-7.85913,1.59034 -17.04565,3.68865 -25.2912,6.03593c-8.24552,2.3472 -17.1696,5.28637 -24.18341,8.04834c-7.01388,2.76192 -12.25645,5.64212 -17.90121,8.52407c-5.64323,2.88116 -9.97638,5.04479 -15.96083,8.76864c-5.98447,3.7238 -13.24622,8.04311 -19.94245,13.57698c-6.69622,5.53387 -13.84834,12.79138 -20.2309,19.62614c-6.38258,6.83472 -12.87655,14.93053 -18.0646,21.38243c-5.18799,6.45188 -8.9861,11.86674 -13.06294,17.3263c-4.07684,5.45957 -9.13455,12.33022 -11.3976,15.42855c-2.26299,3.09832 -1.2857,3.59851 -2.17888,3.16057z" fill="#f1c232" stroke="none" stroke-width="1" stroke-linecap="square" stroke-linejoin="miter"/><path d="M112.38243,180.96633c-0.89318,-0.43792 -4.85008,-1.15629 -3.17838,-5.78482c1.67321,-4.62938 8.57058,-15.18375 13.21227,-21.99069c4.64258,-6.80532 9.29029,-12.41356 14.63907,-18.8453c5.34975,-6.43001 12.081,-14.00311 17.45942,-19.74163c5.37841,-5.73852 10.27774,-10.61281 14.81446,-14.68692c4.53675,-4.07406 7.0667,-5.9565 12.40413,-9.76103c5.33745,-3.80447 13.08832,-9.42744 19.61869,-13.06931c6.53035,-3.64194 12.9991,-5.93945 19.56658,-8.78379c6.56748,-2.84433 12.12565,-5.78939 19.84064,-8.28131c7.71501,-2.49188 19.24941,-5.06427 26.44604,-6.67255c7.1967,-1.6083 10.98025,-2.21157 16.73433,-2.9731c5.75505,-0.75988 13.76734,-1.88981 17.79455,-1.59197c4.02874,0.29706 6.25231,2.24097 6.3724,3.37486c0.12161,1.13302 -1.05935,2.27433 -5.64548,3.42917c-4.58458,1.15392 -14.0047,1.9117 -21.86471,3.50042c-7.85913,1.59034 -17.04565,3.68865 -25.2912,6.03593c-8.24552,2.3472 -17.1696,5.28637 -24.18341,8.04834c-7.01388,2.76192 -12.25645,5.64212 -17.90121,8.52407c-5.64323,2.88116 -9.97638,5.04479 -15.96083,8.76864c-5.98447,3.7238 -13.24622,8.04311 -19.94245,13.57698c-6.69622,5.53387 -13.84834,12.79138 -20.2309,19.62614c-6.38258,6.83472 -12.87655,14.93053 -18.0646,21.38243c-5.18799,6.45188 -8.9861,11.86674 -13.06294,17.3263c-4.07684,5.45957 -9.13455,12.33022 -11.3976,15.42855c-2.26299,3.09832 -1.2857,3.59851 -2.17888,3.16057z" fill="none" stroke="#f1c232" stroke-width="1" stroke-linecap="butt" stroke-linejoin="round"/><path d="M165.03913,251.52833c7.48822,-0.56171 3.18115,4.49432 8.98425,7.86353c5.80316,3.3692 28.45538,6.54852 25.83466,12.35168c-2.62073,5.80316 -29.76508,23.96411 -41.55902,22.46716c-11.79401,-1.49689 -30.32812,-24.33508 -29.20477,-31.44879c1.12341,-7.11371 28.45673,-10.67194 35.94489,-11.23358z" fill="#cc0000" stroke="none" stroke-width="1" stroke-linecap="square" stroke-linejoin="miter"/><path d="M334.85004,343.10299c-23.91339,1.49445 -152.74713,2.91321 -180.24756,1.79199c-27.50049,-1.12115 0.97144,-6.57629 15.24469,-8.51917c14.27326,-1.94293 49.02228,-3.06354 70.39484,-3.13812c21.37262,-0.07458 42.07269,1.04633 57.8407,2.69055c15.76801,1.64417 60.68066,5.6803 36.76733,7.17474z" fill="#000000" stroke="none" stroke-width="1" stroke-linecap="square" stroke-linejoin="miter"/><path d="M334.85004,343.10299c-23.91339,1.49445 -152.74713,2.91321 -180.24756,1.79199c-27.50049,-1.12115 0.97144,-6.57629 15.24469,-8.51917c14.27326,-1.94293 49.02228,-3.06354 70.39484,-3.13812c21.37262,-0.07458 42.07269,1.04633 57.8407,2.69055c15.76801,1.64417 60.68066,5.6803 36.76733,7.17474z" fill="none" stroke="#000000" stroke-width="1" stroke-linecap="butt" stroke-linejoin="round"/><path d="M166.39732,39.10548l-5.25357,8.50133l-10.19887,4.74677l-5.10951,-2.4802l1.07089,-9.17748l9.09228,-6.18667l3.01218,-6.20545l19.2385,-7.57652l-0.13538,-3.89949l13.95293,-1.79899l5.38147,2.38796l9.59297,-2.1098l7.1472,5.72469l-2.19999,5.92409l-10.75152,4.02858l-5.65092,5.60022l-6.14091,2.4313l-8.17798,-0.81142l-9.69568,8.82472l-3.29545,-2.50087z" fill="#f1c232" stroke="none" stroke-width="1" stroke-linecap="square" stroke-linejoin="miter"/></g></g></svg>